HIERARCHY
ROOT root
{
	OFFSET	0	13.1	24.9
	CHANNELS 6  Xposition Yposition Zposition Xrotation Yrotation Zrotation
	JOINT spine_1
	{
		OFFSET	0	9.99999	0
		CHANNELS 3  Xrotation Yrotation Zrotation
		JOINT spine_2
		{
			OFFSET	0	112	-10
			CHANNELS 3  Xrotation Yrotation Zrotation
			JOINT spine_3
			{
				OFFSET	0	206.5	19.3
				CHANNELS 3  Xrotation Yrotation Zrotation
				JOINT spine_4
				{
					OFFSET	0	110.4	14.6
					CHANNELS 3  Xrotation Yrotation Zrotation
					JOINT neck_1
					{
						OFFSET	0	71.8	-50.3
						CHANNELS 3  Xrotation Yrotation Zrotation
						JOINT neck_2
						{
							OFFSET	0	86.2	-25.8
							CHANNELS 3  Xrotation Yrotation Zrotation
							JOINT head_ee
							{
								OFFSET	0	179.8	-8.7
								CHANNELS 3  Xrotation Yrotation Zrotation
								End Site
								{
									OFFSET	1	0	0
								}
							}
						}
					}
					JOINT left_clavicle
					{
						OFFSET	-43.2	22.4	-70.8
						CHANNELS 3  Xrotation Yrotation Zrotation
						JOINT left_shoulder
						{
							OFFSET	-93.9	-5.79999	48.7
							CHANNELS 3  Xrotation Yrotation Zrotation
							JOINT left_elbow
							{
								OFFSET	-291.4	-30.8	15.2
								CHANNELS 3  Xrotation Yrotation Zrotation
								JOINT left_lowarm_twist
								{
									OFFSET	-110.7	-3.89999	13.6
									CHANNELS 3  Xrotation Yrotation Zrotation
									JOINT left_hand
									{
										OFFSET	-110.7	-3.89999	13.6
										CHANNELS 3  Xrotation Yrotation Zrotation
										JOINT left_ee
										{
											OFFSET	-80.8	-5.10001	12.1
											CHANNELS 3  Xrotation Yrotation Zrotation
											End Site
											{
												OFFSET	1	0	0
											}
										}
									}
								}
							}
						}
					}
					JOINT right_clavicle
					{
						OFFSET	43.2	22.4	-70.8
						CHANNELS 3  Xrotation Yrotation Zrotation
						JOINT right_shoulder
						{
							OFFSET	93.9	-5.79999	48.7
							CHANNELS 3  Xrotation Yrotation Zrotation
							JOINT right_elbow
							{
								OFFSET	291.4	-30.8	15.2
								CHANNELS 3  Xrotation Yrotation Zrotation
								JOINT right_lowarm_twist
								{
									OFFSET	110.7	-3.89999	13.6
									CHANNELS 3  Xrotation Yrotation Zrotation
									JOINT right_hand
									{
										OFFSET	110.7	-3.89999	13.6
										CHANNELS 3  Xrotation Yrotation Zrotation
										JOINT right_ee
										{
											OFFSET	80.8	-5.10001	12.1
											CHANNELS 3  Xrotation Yrotation Zrotation
											End Site
											{
												OFFSET	1	0	0
											}
										}
									}
								}
							}
						}
					}
				}
			}
		}
	}
	JOINT left_hip
	{
		OFFSET	-82.8	-127.5	0.300001
		CHANNELS 3  Xrotation Yrotation Zrotation
		JOINT left_knee
		{
			OFFSET	-28.2	-396.7	2.2
			CHANNELS 3  Xrotation Yrotation Zrotation
			JOINT left_ankle
			{
				OFFSET	-11.7	-411.3	35.4
				CHANNELS 3  Xrotation Yrotation Zrotation
				JOINT left_toes
				{
					OFFSET	0	-60	-88.6
					CHANNELS 3  Xrotation Yrotation Zrotation
					JOINT left_foot_ee
					{
						OFFSET	-22.5	-16.5	-42.2
						CHANNELS 3  Xrotation Yrotation Zrotation
						End Site
						{
							OFFSET	1	0	0
						}
					}
				}
			}
		}
	}
	JOINT right_hip
	{
		OFFSET	82.8	-127.5	0.300001
		CHANNELS 3  Xrotation Yrotation Zrotation
		JOINT right_knee
		{
			OFFSET	28.2	-396.7	2.2
			CHANNELS 3  Xrotation Yrotation Zrotation
			JOINT right_ankle
			{
				OFFSET	11.7	-411.3	35.4
				CHANNELS 3  Xrotation Yrotation Zrotation
				JOINT right_toes
				{
					OFFSET	0	-60	-88.6
					CHANNELS 3  Xrotation Yrotation Zrotation
					JOINT right_foot_ee
					{
						OFFSET	22.5	-16.5	-42.2
						CHANNELS 3  Xrotation Yrotation Zrotation
						End Site
						{
							OFFSET	1	0	0
						}
					}
				}
			}
		}
	}
}
MOTION
Frames: 5
Frame Time: 0.02
1186.41 711.271 -1316.86 -33.4655 63.5371 24.8023 6.07249 0.513759 3.99209 6.08131 0.2589 4.01664 6.08923 -0.16548 4.02156 6.06697 0.47121 3.99733 -11.952 8.44012 -3.66856 -12.0926 18.3569 -1.12492 -0.0 0.0 -0.0 -9.34647 18.8908 -12.1623 -9.68715 -48.5454 65.2222 0.900394 -24.0379 0.1917 -23.8047 -1.4155 2.67245 3.56855 -12.6064 18.9951 -0.0 0.0 -0.0 5.91948 -6.12773 -11.5019 -25.7249 39.2167 -70.5676 1.56481 37.7788 -0.53546 36.7802 0.19247 4.61481 -2.1942 -27.5 1.23879 0.0 0.0 0.0 3.52471 16.5568 10.4472 6.30579 -0.310533 -0.917029 24.1702 -9.08801 -3.36074 0.663686 -0.0 -0.0 -0.0 0.0 -0.0 24.0231 27.3356 -2.61191 -13.8532 -0.318213 -2.09697 34.8339 -20.7154 4.53833 10.4285 -0.0 -0.0 0.0 0.0 0.0 
1182.42 710.989 -1319.44 -33.5874 63.4163 25.0261 6.07916 0.47575 3.90188 6.0876 0.226695 3.9242 6.09335 -0.187548 3.92626 6.0721 0.434401 3.90669 -10.9524 8.2435 -4.51299 -11.0339 18.5445 -2.16826 -0.0 0.0 -0.0 -9.17513 18.741 -11.9421 -10.1979 -48.5517 64.9607 0.869728 -23.308 0.179387 -23.3998 -1.38244 2.63248 3.69623 -12.7958 19.8107 -0.0 0.0 -0.0 5.8867 -6.17477 -11.4411 -26.1655 38.6588 -70.4185 1.58778 38.1836 -0.549593 37.1225 0.208119 4.65568 -2.16366 -28.2082 0.721864 0.0 0.0 0.0 3.40862 16.9206 10.3791 6.46169 -0.319484 -0.939253 25.4343 -9.20306 -3.51322 -0.665193 0.0 0.0 -0.0 0.0 -0.0 24.0311 26.9867 -2.54811 -14.3271 -0.320072 -2.16966 37.547 -19.5676 4.78619 10.859 -0.0 -0.0 0.0 0.0 0.0 
1180.26 710.641 -1320.41 -34.129 63.5157 25.5858 6.09203 0.458882 3.89093 6.10042 0.210556 3.9122 6.10505 -0.201571 3.91268 6.08393 0.418414 3.89549 -10.6776 7.9032 -5.06504 -10.727 18.2725 -2.84577 -0.0 0.0 -0.0 -9.17359 18.6993 -11.9555 -10.759 -49.6545 64.5821 0.883835 -23.6448 0.185007 -23.1027 -1.35835 2.60299 3.91797 -13.3487 21.1228 -0.0 0.0 -0.0 5.98677 -6.23913 -11.6258 -26.5098 38.6961 -70.1387 1.56617 37.8028 -0.536292 37.2068 0.21201 4.66573 -2.34241 -28.5116 1.53518 0.0 0.0 0.0 3.2203 16.626 10.3184 6.5554 -0.324894 -0.9526 24.5939 -9.34499 -3.41587 -2.98113 0.0 0.0 -0.0 0.0 -0.0 24.1209 26.6238 -2.708 -14.594 -0.320853 -2.2106 37.943 -19.905 4.83184 10.5435 -0.0 -0.0 0.0 0.0 0.0 
1175.92 712.34 -1321.6 -34.1636 63.8033 25.5972 6.10342 0.454835 3.87005 6.11173 0.207843 3.8911 6.11617 -0.201297 3.89145 6.09529 0.415339 3.87448 -10.455 7.40972 -5.18053 -10.4804 17.4255 -3.12743 -0.0 0.0 -0.0 -9.29536 18.5699 -12.2032 -11.3803 -50.6156 63.8223 0.913241 -24.3413 0.196964 -22.1419 -1.28152 2.50681 4.07964 -13.7054 22.106 -0.0 0.0 -0.0 6.36827 -6.7604 -12.3251 -28.1738 38.9563 -68.7506 1.47895 36.2253 -0.483783 36.9644 0.200862 4.63682 -2.30256 -27.3592 1.90162 0.0 0.0 0.0 3.43137 15.9718 10.3865 6.85897 -0.342569 -0.995779 25.5669 -9.65071 -3.53673 -5.75227 0.0 0.0 -0.0 0.0 -0.0 23.3374 25.1465 -2.66389 -14.2548 -0.319827 -2.15857 36.9306 -20.1799 4.73886 9.39542 -0.0 -0.0 0.0 0.0 0.0 
1175.44 712.261 -1321.67 -34.6588 63.8247 26.0585 6.08327 0.461177 3.92487 6.09182 0.210692 3.94622 6.09643 -0.20561 3.94649 6.07494 0.419752 3.92951 -10.2184 7.06139 -5.39934 -10.222 16.9235 -3.47069 -0.0 0.0 -0.0 -9.31065 18.6217 -12.2081 -11.7871 -51.0144 63.307 0.926876 -24.6617 0.202619 -21.3877 -1.22236 2.43044 4.24192 -14.2128 23.019 -0.0 0.0 -0.0 6.77997 -6.87723 -13.0838 -29.3337 39.1149 -67.8152 1.38546 34.4606 -0.429694 36.8324 0.194838 4.62104 -2.33551 -26.7647 2.38353 0.0 0.0 0.0 3.58813 15.698 10.4177 7.05537 -0.354126 -1.02366 25.1396 -9.62985 -3.48582 -7.18776 0.0 0.0 -0.0 0.0 -0.0 23.2919 25.4315 -2.34982 -13.9489 -0.318637 -2.11165 37.3101 -19.6669 4.76518 9.40018 -0.0 -0.0 0.0 0.0 0.0 
